# Blender 3.6.21
# www.blender.org
mtllib untitled.mtl
o cube
v 0.437500 0.125000 0.437500
v 0.437500 0.125000 -0.437500
v 0.437500 0.062500 0.437500
v 0.437500 0.062500 -0.437500
v -0.437500 0.125000 -0.437500
v -0.437500 0.125000 0.437500
v -0.437500 0.062500 -0.437500
v -0.437500 0.062500 0.437500
vn -0.0000 -0.0000 -1.0000
vn 1.0000 -0.0000 -0.0000
vn -0.0000 -0.0000 1.0000
vn -1.0000 -0.0000 -0.0000
vn -0.0000 1.0000 -0.0000
vn -0.0000 -1.0000 -0.0000
vt 0.687500 0.796875
vt 0.906250 0.796875
vt 0.906250 0.812500
vt 0.687500 0.812500
vt 0.687500 0.781250
vt 0.906250 0.781250
vt 0.687500 0.765625
vt 0.906250 0.765625
vt 0.687500 0.750000
vt 0.906250 0.750000
vt 0.468750 1.000000
vt 0.250000 1.000000
vt 0.250000 0.781250
vt 0.468750 0.781250
vt 0.468750 0.562500
vt 0.250000 0.562500
s 0
usemtl m_73cf9f00-7e1f-bbc5-d5eb-978881e21a76
f 4/1/1 7/2/1 5/3/1 2/4/1
f 3/5/2 4/6/2 2/2/2 1/1/2
f 8/7/3 3/8/3 1/6/3 6/5/3
f 7/9/4 8/10/4 6/8/4 5/7/4
f 6/11/5 1/12/5 2/13/5 5/14/5
f 7/15/6 4/16/6 3/13/6 8/14/6
o cube.001
v 0.437500 0.500000 0.437500
v 0.437500 0.500000 0.375000
v 0.437500 0.125000 0.437500
v 0.437500 0.125000 0.375000
v -0.437500 0.500000 0.375000
v -0.437500 0.500000 0.437500
v -0.437500 0.125000 0.375000
v -0.437500 0.125000 0.437500
vn -0.0000 -0.0000 -1.0000
vn 1.0000 -0.0000 -0.0000
vn -0.0000 -0.0000 1.0000
vn -1.0000 -0.0000 -0.0000
vn -0.0000 1.0000 -0.0000
vn -0.0000 -1.0000 -0.0000
vt 0.250000 0.468750
vt 0.468750 0.468750
vt 0.468750 0.562500
vt 0.250000 0.562500
vt 0.250000 0.218750
vt 0.265625 0.218750
vt 0.265625 0.312500
vt 0.250000 0.312500
vt 0.468750 0.906250
vt 0.687500 0.906250
vt 0.687500 1.000000
vt 0.468750 1.000000
vt 0.281250 0.218750
vt 0.281250 0.312500
vt 0.906250 0.750000
vt 0.687500 0.750000
vt 0.687500 0.734375
vt 0.906250 0.734375
vt 0.906250 0.718750
vt 0.687500 0.718750
s 0
usemtl m_73cf9f00-7e1f-bbc5-d5eb-978881e21a76
f 12/17/7 15/18/7 13/19/7 10/20/7
f 11/21/8 12/22/8 10/23/8 9/24/8
f 16/25/9 11/26/9 9/27/9 14/28/9
f 15/22/10 16/29/10 14/30/10 13/23/10
f 14/31/11 9/32/11 10/33/11 13/34/11
f 15/35/12 12/36/12 11/33/12 16/34/12
o cube.002
v 0.437500 0.500000 -0.375000
v 0.437500 0.500000 -0.437500
v 0.437500 0.125000 -0.375000
v 0.437500 0.125000 -0.437500
v -0.437500 0.500000 -0.437500
v -0.437500 0.500000 -0.375000
v -0.437500 0.125000 -0.437500
v -0.437500 0.125000 -0.375000
vn -0.0000 -0.0000 -1.0000
vn 1.0000 -0.0000 -0.0000
vn -0.0000 -0.0000 1.0000
vn -1.0000 -0.0000 -0.0000
vn -0.0000 1.0000 -0.0000
vn -0.0000 -1.0000 -0.0000
vt 0.468750 0.812500
vt 0.687500 0.812500
vt 0.687500 0.906250
vt 0.468750 0.906250
vt 0.703125 0.218750
vt 0.718750 0.218750
vt 0.718750 0.312500
vt 0.703125 0.312500
vt 0.468750 0.718750
vt 0.687500 0.718750
vt 0.734375 0.218750
vt 0.734375 0.312500
vt 0.921875 0.718750
vt 0.703125 0.718750
vt 0.703125 0.703125
vt 0.921875 0.703125
vt 0.921875 0.687500
vt 0.703125 0.687500
s 0
usemtl m_73cf9f00-7e1f-bbc5-d5eb-978881e21a76
f 20/37/13 23/38/13 21/39/13 18/40/13
f 19/41/14 20/42/14 18/43/14 17/44/14
f 24/45/15 19/46/15 17/38/15 22/37/15
f 23/42/16 24/47/16 22/48/16 21/43/16
f 22/49/17 17/50/17 18/51/17 21/52/17
f 23/53/18 20/54/18 19/51/18 24/52/18
o cube.003
v 0.437500 0.500000 0.375000
v 0.437500 0.500000 -0.375000
v 0.437500 0.125000 0.375000
v 0.437500 0.125000 -0.375000
v 0.375000 0.500000 -0.375000
v 0.375000 0.500000 0.375000
v 0.375000 0.125000 -0.375000
v 0.375000 0.125000 0.375000
vn -0.0000 -0.0000 -1.0000
vn 1.0000 -0.0000 -0.0000
vn -0.0000 -0.0000 1.0000
vn -1.0000 -0.0000 -0.0000
vn -0.0000 1.0000 -0.0000
vn -0.0000 -1.0000 -0.0000
vt 0.281250 0.171875
vt 0.296875 0.171875
vt 0.296875 0.265625
vt 0.281250 0.265625
vt 0.468750 0.625000
vt 0.656250 0.625000
vt 0.656250 0.718750
vt 0.468750 0.718750
vt 0.312500 0.171875
vt 0.312500 0.265625
vt 0.468750 0.531250
vt 0.656250 0.531250
vt 0.203125 0.312500
vt 0.187500 0.312500
vt 0.187500 0.125000
vt 0.203125 0.125000
vt 0.218750 0.125000
vt 0.218750 0.312500
s 0
usemtl m_73cf9f00-7e1f-bbc5-d5eb-978881e21a76
f 28/55/19 31/56/19 29/57/19 26/58/19
f 27/59/20 28/60/20 26/61/20 25/62/20
f 32/56/21 27/63/21 25/64/21 30/57/21
f 31/65/22 32/66/22 30/60/22 29/59/22
f 30/67/23 25/68/23 26/69/23 29/70/23
f 31/71/24 28/70/24 27/67/24 32/72/24
o cube.004
v -0.375000 0.500000 0.375000
v -0.375000 0.500000 -0.375000
v -0.375000 0.125000 0.375000
v -0.375000 0.125000 -0.375000
v -0.437500 0.500000 -0.375000
v -0.437500 0.500000 0.375000
v -0.437500 0.125000 -0.375000
v -0.437500 0.125000 0.375000
vn -0.0000 -0.0000 -1.0000
vn 1.0000 -0.0000 -0.0000
vn -0.0000 -0.0000 1.0000
vn -1.0000 -0.0000 -0.0000
vn -0.0000 1.0000 -0.0000
vn -0.0000 -1.0000 -0.0000
vt 0.312500 0.171875
vt 0.328125 0.171875
vt 0.328125 0.265625
vt 0.312500 0.265625
vt 0.468750 0.437500
vt 0.656250 0.437500
vt 0.656250 0.531250
vt 0.468750 0.531250
vt 0.343750 0.171875
vt 0.343750 0.265625
vt 0.000000 0.406250
vt 0.187500 0.406250
vt 0.187500 0.500000
vt 0.000000 0.500000
vt 0.234375 0.312500
vt 0.218750 0.312500
vt 0.218750 0.125000
vt 0.234375 0.125000
vt 0.250000 0.125000
vt 0.250000 0.312500
s 0
usemtl m_73cf9f00-7e1f-bbc5-d5eb-978881e21a76
f 36/73/25 39/74/25 37/75/25 34/76/25
f 35/77/26 36/78/26 34/79/26 33/80/26
f 40/74/27 35/81/27 33/82/27 38/75/27
f 39/83/28 40/84/28 38/85/28 37/86/28
f 38/87/29 33/88/29 34/89/29 37/90/29
f 39/91/30 36/90/30 35/87/30 40/92/30
o cube.005
v 0.440717 0.515165 -0.439966
v 0.254668 0.492064 -0.442857
v 0.498144 0.059796 -0.496949
v 0.312095 0.036694 -0.499840
v 0.254668 0.468782 -0.256808
v 0.440717 0.491884 -0.253917
v 0.312095 0.013413 -0.313791
v 0.498144 0.036514 -0.310900
vn -0.9923 -0.1232 -0.0154
vn -0.0000 0.1242 -0.9923
vn 0.9923 0.1232 0.0154
vn -0.0000 -0.1242 0.9923
vn -0.1242 0.9846 0.1232
vn 0.1242 -0.9846 -0.1232
vt 0.468750 0.242188
vt 0.515625 0.242188
vt 0.515625 0.359375
vt 0.468750 0.359375
vt 0.562500 0.242188
vt 0.562500 0.359375
vt 0.609375 0.242188
vt 0.609375 0.359375
vt 0.656250 0.242188
vt 0.656250 0.359375
vt 0.750000 0.593750
vt 0.703125 0.593750
vt 0.703125 0.546875
vt 0.750000 0.546875
vt 0.750000 0.500000
vt 0.703125 0.500000
s 0
usemtl m_73cf9f00-7e1f-bbc5-d5eb-978881e21a76
f 44/93/31 47/94/31 45/95/31 42/96/31
f 43/94/32 44/97/32 42/98/32 41/95/32
f 48/97/33 43/99/33 41/100/33 46/98/33
f 47/99/34 48/101/34 46/102/34 45/100/34
f 46/103/35 41/104/35 42/105/35 45/106/35
f 47/107/36 44/108/36 43/105/36 48/106/36
o cube.006
v -0.439966 0.515165 -0.440717
v -0.442857 0.492064 -0.254668
v -0.496949 0.059796 -0.498144
v -0.499840 0.036694 -0.312095
v -0.256808 0.468782 -0.254668
v -0.253917 0.491884 -0.440717
v -0.313791 0.013413 -0.312095
v -0.310900 0.036514 -0.498144
vn -0.0154 -0.1232 0.9923
vn -0.9923 0.1242 -0.0000
vn 0.0154 0.1232 -0.9923
vn 0.9923 -0.1242 -0.0000
vn 0.1232 0.9846 0.1242
vn -0.1232 -0.9846 -0.1242
vt 0.656250 0.601562
vt 0.703125 0.601562
vt 0.703125 0.718750
vt 0.656250 0.718750
vt 0.656250 0.476562
vt 0.703125 0.476562
vt 0.703125 0.593750
vt 0.656250 0.593750
vt 0.656250 0.351562
vt 0.703125 0.351562
vt 0.703125 0.468750
vt 0.656250 0.468750
vt 0.656250 0.226562
vt 0.703125 0.226562
vt 0.703125 0.343750
vt 0.656250 0.343750
vt 0.750000 0.500000
vt 0.703125 0.500000
vt 0.703125 0.453125
vt 0.750000 0.453125
vt 0.750000 0.406250
vt 0.703125 0.406250
s 0
usemtl m_73cf9f00-7e1f-bbc5-d5eb-978881e21a76
f 52/109/37 55/110/37 53/111/37 50/112/37
f 51/113/38 52/114/38 50/115/38 49/116/38
f 56/117/39 51/118/39 49/119/39 54/120/39
f 55/121/40 56/122/40 54/123/40 53/124/40
f 54/125/41 49/126/41 50/127/41 53/128/41
f 55/129/42 52/130/42 51/127/42 56/128/42
o cube.007
v -0.440717 0.515165 0.439966
v -0.254668 0.492064 0.442857
v -0.498144 0.059796 0.496949
v -0.312095 0.036695 0.499840
v -0.254668 0.468782 0.256808
v -0.440717 0.491884 0.253917
v -0.312095 0.013413 0.313791
v -0.498144 0.036514 0.310900
vn 0.9923 -0.1232 0.0154
vn -0.0000 0.1242 0.9923
vn -0.9923 0.1232 -0.0154
vn -0.0000 -0.1242 -0.9923
vn 0.1242 0.9846 -0.1232
vn -0.1242 -0.9846 0.1232
vt 0.000000 0.210938
vt 0.046875 0.210938
vt 0.046875 0.328125
vt 0.000000 0.328125
vt 0.093750 0.210938
vt 0.093750 0.328125
vt 0.140625 0.210938
vt 0.140625 0.328125
vt 0.187500 0.210938
vt 0.187500 0.328125
vt 0.750000 0.406250
vt 0.703125 0.406250
vt 0.703125 0.359375
vt 0.750000 0.359375
vt 0.750000 0.312500
vt 0.703125 0.312500
s 0
usemtl m_73cf9f00-7e1f-bbc5-d5eb-978881e21a76
f 60/131/43 63/132/43 61/133/43 58/134/43
f 59/132/44 60/135/44 58/136/44 57/133/44
f 64/135/45 59/137/45 57/138/45 62/136/45
f 63/137/46 64/139/46 62/140/46 61/138/46
f 62/141/47 57/142/47 58/143/47 61/144/47
f 63/145/48 60/146/48 59/143/48 64/144/48
o cube.008
v 0.078910 0.176451 0.062500
v 0.123104 0.220646 0.062500
v 0.176137 0.079224 0.062500
v 0.220332 0.123418 0.062500
v 0.123104 0.220646 -0.062500
v 0.078910 0.176451 -0.062500
v 0.220332 0.123418 -0.062500
v 0.176137 0.079224 -0.062500
vn 0.7071 0.7071 -0.0000
vn -0.0000 -0.0000 1.0000
vn -0.7071 -0.7071 -0.0000
vn -0.0000 -0.0000 -1.0000
vn -0.7071 0.7071 -0.0000
vn 0.7071 -0.7071 -0.0000
vt 0.765625 0.656250
vt 0.796875 0.656250
vt 0.796875 0.687500
vt 0.765625 0.687500
vt 0.765625 0.468750
vt 0.781250 0.468750
vt 0.781250 0.500000
vt 0.765625 0.500000
vt 0.765625 0.625000
vt 0.796875 0.625000
vt 0.515625 0.203125
vt 0.531250 0.203125
vt 0.531250 0.234375
vt 0.515625 0.234375
vt 0.562500 0.234375
vt 0.531250 0.218750
vt 0.562500 0.218750
vt 0.796875 0.453125
vt 0.765625 0.453125
vt 0.796875 0.468750
s 0
usemtl m_73cf9f00-7e1f-bbc5-d5eb-978881e21a76
f 68/147/49 71/148/49 69/149/49 66/150/49
f 67/151/50 68/152/50 66/153/50 65/154/50
f 72/155/51 67/156/51 65/148/51 70/147/51
f 71/157/52 72/158/52 70/159/52 69/160/52
f 70/161/53 65/159/53 66/162/53 69/163/53
f 71/164/54 68/165/54 67/151/54 72/166/54
o cube.009
v -0.062500 0.176451 0.078910
v -0.062500 0.220646 0.123104
v -0.062500 0.079224 0.176137
v -0.062500 0.123418 0.220332
v 0.062500 0.220646 0.123104
v 0.062500 0.176451 0.078910
v 0.062500 0.123418 0.220332
v 0.062500 0.079224 0.176137
vn -0.0000 0.7071 0.7071
vn -1.0000 -0.0000 -0.0000
vn -0.0000 -0.7071 -0.7071
vn 1.0000 -0.0000 -0.0000
vn -0.0000 0.7071 -0.7071
vn -0.0000 -0.7071 0.7071
vt 0.765625 0.593750
vt 0.796875 0.593750
vt 0.796875 0.625000
vt 0.765625 0.625000
vt 0.765625 0.421875
vt 0.781250 0.421875
vt 0.781250 0.453125
vt 0.765625 0.453125
vt 0.765625 0.562500
vt 0.796875 0.562500
vt 0.562500 0.203125
vt 0.578125 0.203125
vt 0.578125 0.234375
vt 0.562500 0.234375
vt 0.609375 0.234375
vt 0.578125 0.218750
vt 0.609375 0.218750
vt 0.796875 0.406250
vt 0.765625 0.406250
vt 0.796875 0.421875
s 0
usemtl m_73cf9f00-7e1f-bbc5-d5eb-978881e21a76
f 76/167/55 79/168/55 77/169/55 74/170/55
f 75/171/56 76/172/56 74/173/56 73/174/56
f 80/175/57 75/176/57 73/168/57 78/167/57
f 79/177/58 80/178/58 78/179/58 77/180/58
f 78/181/59 73/179/59 74/182/59 77/183/59
f 79/184/60 76/185/60 75/171/60 80/186/60
o cube.010
v -0.078910 0.176451 -0.062500
v -0.123104 0.220646 -0.062500
v -0.176137 0.079224 -0.062500
v -0.220332 0.123418 -0.062500
v -0.123104 0.220646 0.062500
v -0.078910 0.176451 0.062500
v -0.220332 0.123418 0.062500
v -0.176137 0.079224 0.062500
vn -0.7071 0.7071 -0.0000
vn -0.0000 -0.0000 -1.0000
vn 0.7071 -0.7071 -0.0000
vn -0.0000 -0.0000 1.0000
vn 0.7071 0.7071 -0.0000
vn -0.7071 -0.7071 -0.0000
vt 0.765625 0.531250
vt 0.796875 0.531250
vt 0.796875 0.562500
vt 0.765625 0.562500
vt 0.765625 0.375000
vt 0.781250 0.375000
vt 0.781250 0.406250
vt 0.765625 0.406250
vt 0.468750 0.203125
vt 0.500000 0.203125
vt 0.500000 0.234375
vt 0.468750 0.234375
vt 0.609375 0.203125
vt 0.625000 0.203125
vt 0.625000 0.234375
vt 0.609375 0.234375
vt 0.656250 0.234375
vt 0.625000 0.218750
vt 0.656250 0.218750
vt 0.796875 0.359375
vt 0.765625 0.359375
vt 0.796875 0.375000
s 0
usemtl m_73cf9f00-7e1f-bbc5-d5eb-978881e21a76
f 84/187/61 87/188/61 85/189/61 82/190/61
f 83/191/62 84/192/62 82/193/62 81/194/62
f 88/195/63 83/196/63 81/197/63 86/198/63
f 87/199/64 88/200/64 86/201/64 85/202/64
f 86/203/65 81/201/65 82/204/65 85/205/65
f 87/206/66 84/207/66 83/191/66 88/208/66
o cube.011
v 0.062500 0.176451 -0.078910
v 0.062500 0.220646 -0.123104
v 0.062500 0.079224 -0.176137
v 0.062500 0.123418 -0.220332
v -0.062500 0.220646 -0.123104
v -0.062500 0.176451 -0.078910
v -0.062500 0.123418 -0.220332
v -0.062500 0.079224 -0.176137
vn -0.0000 0.7071 -0.7071
vn 1.0000 -0.0000 -0.0000
vn -0.0000 -0.7071 0.7071
vn -1.0000 -0.0000 -0.0000
vn -0.0000 0.7071 0.7071
vn -0.0000 -0.7071 -0.7071
vt 0.765625 0.906250
vt 0.796875 0.906250
vt 0.796875 0.937500
vt 0.765625 0.937500
vt 0.765625 0.500000
vt 0.781250 0.500000
vt 0.781250 0.531250
vt 0.765625 0.531250
vt 0.765625 0.875000
vt 0.796875 0.875000
vt 0.500000 0.203125
vt 0.515625 0.203125
vt 0.515625 0.234375
vt 0.500000 0.234375
vt 0.781250 0.828125
vt 0.750000 0.828125
vt 0.750000 0.812500
vt 0.781250 0.812500
vt 0.796875 0.859375
vt 0.765625 0.859375
s 0
usemtl m_73cf9f00-7e1f-bbc5-d5eb-978881e21a76
f 92/209/67 95/210/67 93/211/67 90/212/67
f 91/213/68 92/214/68 90/215/68 89/216/68
f 96/217/69 91/218/69 89/210/69 94/209/69
f 95/219/70 96/220/70 94/221/70 93/222/70
f 94/223/71 89/224/71 90/225/71 93/226/71
f 95/227/72 92/228/72 91/217/72 96/218/72
o cube.012
v 0.500000 0.062500 0.500000
v 0.500000 0.062500 -0.500000
v 0.500000 0.000000 0.500000
v 0.500000 -0.000000 -0.500000
v -0.500000 0.062500 -0.500000
v -0.500000 0.062500 0.500000
v -0.500000 -0.000000 -0.500000
v -0.500000 0.000000 0.500000
vn -0.0000 -0.0000 -1.0000
vn 1.0000 -0.0000 -0.0000
vn -0.0000 -0.0000 1.0000
vn -1.0000 -0.0000 -0.0000
vn -0.0000 1.0000 -0.0000
vn -0.0000 -1.0000 -0.0000
vt 0.687500 0.984375
vt 0.937500 0.984375
vt 0.937500 1.000000
vt 0.687500 1.000000
vt 0.687500 0.968750
vt 0.937500 0.968750
vt 0.687500 0.953125
vt 0.937500 0.953125
vt 0.687500 0.937500
vt 0.937500 0.937500
vt 0.250000 1.000000
vt 0.000000 1.000000
vt 0.000000 0.750000
vt 0.250000 0.750000
vt 0.250000 0.500000
vt 0.000000 0.500000
s 0
usemtl m_73cf9f00-7e1f-bbc5-d5eb-978881e21a76
f 100/229/73 103/230/73 101/231/73 98/232/73
f 99/233/74 100/234/74 98/230/74 97/229/74
f 104/235/75 99/236/75 97/234/75 102/233/75
f 103/237/76 104/238/76 102/236/76 101/235/76
f 102/239/77 97/240/77 98/241/77 101/242/77
f 103/243/78 100/244/78 99/241/78 104/242/78
o cube.013
v -0.437500 0.375000 0.187500
v -0.437500 0.375000 -0.187500
v -0.437500 0.062500 0.187500
v -0.437500 0.062500 -0.187500
v -0.500000 0.375000 -0.187500
v -0.500000 0.375000 0.187500
v -0.500000 0.062500 -0.187500
v -0.500000 0.062500 0.187500
vn -0.0000 -0.0000 -1.0000
vn 1.0000 -0.0000 -0.0000
vn -0.0000 -0.0000 1.0000
vn -1.0000 -0.0000 -0.0000
vn -0.0000 1.0000 -0.0000
vn -0.0000 -1.0000 -0.0000
vt 0.734375 0.234375
vt 0.750000 0.234375
vt 0.750000 0.312500
vt 0.734375 0.312500
vt 0.187500 0.390625
vt 0.281250 0.390625
vt 0.281250 0.468750
vt 0.187500 0.468750
vt 0.750000 0.859375
vt 0.765625 0.859375
vt 0.765625 0.937500
vt 0.750000 0.937500
vt 0.375000 0.390625
vt 0.375000 0.468750
vt 0.359375 0.265625
vt 0.343750 0.265625
vt 0.343750 0.171875
vt 0.359375 0.171875
vt 0.375000 0.171875
vt 0.375000 0.265625
s 0
usemtl m_73cf9f00-7e1f-bbc5-d5eb-978881e21a76
f 108/245/79 111/246/79 109/247/79 106/248/79
f 107/249/80 108/250/80 106/251/80 105/252/80
f 112/253/81 107/254/81 105/255/81 110/256/81
f 111/250/82 112/257/82 110/258/82 109/251/82
f 110/259/83 105/260/83 106/261/83 109/262/83
f 111/263/84 108/262/84 107/259/84 112/264/84
o cube.014
v -0.187500 0.375000 -0.437500
v 0.187500 0.375000 -0.437500
v -0.187500 0.062500 -0.437500
v 0.187500 0.062500 -0.437500
v 0.187500 0.375000 -0.500000
v -0.187500 0.375000 -0.500000
v 0.187500 0.062500 -0.500000
v -0.187500 0.062500 -0.500000
vn 1.0000 -0.0000 -0.0000
vn -0.0000 -0.0000 1.0000
vn -1.0000 -0.0000 -0.0000
vn -0.0000 -0.0000 -1.0000
vn -0.0000 1.0000 -0.0000
vn -0.0000 -1.0000 -0.0000
vt 0.750000 0.453125
vt 0.765625 0.453125
vt 0.765625 0.531250
vt 0.750000 0.531250
vt 0.562500 0.359375
vt 0.656250 0.359375
vt 0.656250 0.437500
vt 0.562500 0.437500
vt 0.750000 0.375000
vt 0.765625 0.375000
vt 0.000000 0.328125
vt 0.093750 0.328125
vt 0.093750 0.406250
vt 0.000000 0.406250
vt 0.421875 0.265625
vt 0.406250 0.265625
vt 0.406250 0.171875
vt 0.421875 0.171875
vt 0.437500 0.171875
vt 0.437500 0.265625
s 0
usemtl m_73cf9f00-7e1f-bbc5-d5eb-978881e21a76
f 116/265/85 119/266/85 117/267/85 114/268/85
f 115/269/86 116/270/86 114/271/86 113/272/86
f 120/273/87 115/274/87 113/266/87 118/265/87
f 119/275/88 120/276/88 118/277/88 117/278/88
f 118/279/89 113/280/89 114/281/89 117/282/89
f 119/283/90 116/282/90 115/279/90 120/284/90
o cube.015
v -0.187500 0.375000 0.500000
v 0.187500 0.375000 0.500000
v -0.187500 0.062500 0.500000
v 0.187500 0.062500 0.500000
v 0.187500 0.375000 0.437500
v -0.187500 0.375000 0.437500
v 0.187500 0.062500 0.437500
v -0.187500 0.062500 0.437500
vn 1.0000 -0.0000 -0.0000
vn -0.0000 -0.0000 1.0000
vn -1.0000 -0.0000 -0.0000
vn -0.0000 -0.0000 -1.0000
vn -0.0000 1.0000 -0.0000
vn -0.0000 -1.0000 -0.0000
vt 0.750000 0.296875
vt 0.765625 0.296875
vt 0.765625 0.375000
vt 0.750000 0.375000
vt 0.093750 0.328125
vt 0.187500 0.328125
vt 0.187500 0.406250
vt 0.093750 0.406250
vt 0.750000 0.218750
vt 0.765625 0.218750
vt 0.187500 0.312500
vt 0.281250 0.312500
vt 0.281250 0.390625
vt 0.187500 0.390625
vt 0.453125 0.265625
vt 0.437500 0.265625
vt 0.437500 0.171875
vt 0.453125 0.171875
vt 0.468750 0.171875
vt 0.468750 0.265625
s 0
usemtl m_73cf9f00-7e1f-bbc5-d5eb-978881e21a76
f 124/285/91 127/286/91 125/287/91 122/288/91
f 123/289/92 124/290/92 122/291/92 121/292/92
f 128/293/93 123/294/93 121/286/93 126/285/93
f 127/295/94 128/296/94 126/297/94 125/298/94
f 126/299/95 121/300/95 122/301/95 125/302/95
f 127/303/96 124/302/96 123/299/96 128/304/96
o cube.016
v 0.500000 0.375000 0.187500
v 0.500000 0.375000 -0.187500
v 0.500000 0.062500 0.187500
v 0.500000 0.062500 -0.187500
v 0.437500 0.375000 -0.187500
v 0.437500 0.375000 0.187500
v 0.437500 0.062500 -0.187500
v 0.437500 0.062500 0.187500
vn -0.0000 -0.0000 -1.0000
vn 1.0000 -0.0000 -0.0000
vn -0.0000 -0.0000 1.0000
vn -1.0000 -0.0000 -0.0000
vn -0.0000 1.0000 -0.0000
vn -0.0000 -1.0000 -0.0000
vt 0.750000 0.609375
vt 0.765625 0.609375
vt 0.765625 0.687500
vt 0.750000 0.687500
vt 0.375000 0.390625
vt 0.468750 0.390625
vt 0.468750 0.468750
vt 0.375000 0.468750
vt 0.750000 0.531250
vt 0.765625 0.531250
vt 0.468750 0.359375
vt 0.562500 0.359375
vt 0.562500 0.437500
vt 0.468750 0.437500
vt 0.390625 0.265625
vt 0.375000 0.265625
vt 0.375000 0.171875
vt 0.390625 0.171875
vt 0.406250 0.171875
vt 0.406250 0.265625
s 0
usemtl m_73cf9f00-7e1f-bbc5-d5eb-978881e21a76
f 132/305/97 135/306/97 133/307/97 130/308/97
f 131/309/98 132/310/98 130/311/98 129/312/98
f 136/313/99 131/314/99 129/306/99 134/305/99
f 135/315/100 136/316/100 134/317/100 133/318/100
f 134/319/101 129/320/101 130/321/101 133/322/101
f 135/323/102 132/322/102 131/319/102 136/324/102
o cube.017
v 0.439966 0.515165 0.440717
v 0.442857 0.492064 0.254668
v 0.496949 0.059796 0.498144
v 0.499840 0.036694 0.312095
v 0.256808 0.468782 0.254668
v 0.253917 0.491884 0.440717
v 0.313791 0.013413 0.312095
v 0.310900 0.036514 0.498144
vn 0.0154 -0.1232 -0.9923
vn 0.9923 0.1242 -0.0000
vn -0.0154 0.1232 0.9923
vn -0.9923 -0.1242 -0.0000
vn -0.1232 0.9846 -0.1242
vn 0.1232 -0.9846 0.1242
vt 0.281250 0.273438
vt 0.328125 0.273438
vt 0.328125 0.390625
vt 0.281250 0.390625
vt 0.375000 0.273438
vt 0.375000 0.390625
vt 0.421875 0.273438
vt 0.421875 0.390625
vt 0.468750 0.273438
vt 0.468750 0.390625
vt 0.750000 0.687500
vt 0.703125 0.687500
vt 0.703125 0.640625
vt 0.750000 0.640625
vt 0.750000 0.593750
vt 0.703125 0.593750
s 0
usemtl m_73cf9f00-7e1f-bbc5-d5eb-978881e21a76
f 140/325/103 143/326/103 141/327/103 138/328/103
f 139/326/104 140/329/104 138/330/104 137/327/104
f 144/329/105 139/331/105 137/332/105 142/330/105
f 143/331/106 144/333/106 142/334/106 141/332/106
f 142/335/107 137/336/107 138/337/107 141/338/107
f 143/339/108 140/340/108 139/337/108 144/338/108
o cube.018
v 0.125000 0.187500 0.125000
v 0.125000 0.187500 -0.125000
v 0.125000 0.125000 0.125000
v 0.125000 0.125000 -0.125000
v -0.125000 0.187500 -0.125000
v -0.125000 0.187500 0.125000
v -0.125000 0.125000 -0.125000
v -0.125000 0.125000 0.125000
vn -0.0000 -0.0000 -1.0000
vn 1.0000 -0.0000 -0.0000
vn -0.0000 -0.0000 1.0000
vn -1.0000 -0.0000 -0.0000
vn -0.0000 1.0000 -0.0000
vn -0.0000 -1.0000 -0.0000
vt 0.187500 0.484375
vt 0.250000 0.484375
vt 0.250000 0.500000
vt 0.187500 0.500000
vt 0.187500 0.468750
vt 0.250000 0.468750
vt 0.750000 0.843750
vt 0.812500 0.843750
vt 0.812500 0.859375
vt 0.750000 0.859375
vt 0.750000 0.828125
vt 0.812500 0.828125
vt 0.750000 0.937500
vt 0.687500 0.937500
vt 0.687500 0.875000
vt 0.750000 0.875000
vt 0.750000 0.812500
vt 0.687500 0.812500
s 0
usemtl m_73cf9f00-7e1f-bbc5-d5eb-978881e21a76
f 148/341/109 151/342/109 149/343/109 146/344/109
f 147/345/110 148/346/110 146/342/110 145/341/110
f 152/347/111 147/348/111 145/349/111 150/350/111
f 151/351/112 152/352/112 150/348/112 149/347/112
f 150/353/113 145/354/113 146/355/113 149/356/113
f 151/357/114 148/358/114 147/355/114 152/356/114
