# Blender 3.6.21
# www.blender.org
mtllib po.mtl
o cube
v 0.500000 0.062500 0.500000
v 0.500000 0.062500 -0.500000
v 0.500000 0.000000 0.500000
v 0.500000 -0.000000 -0.500000
v -0.500000 0.062500 -0.500000
v -0.500000 0.062500 0.500000
v -0.500000 -0.000000 -0.500000
v -0.500000 0.000000 0.500000
vn -0.0000 -0.0000 -1.0000
vn 1.0000 -0.0000 -0.0000
vn -0.0000 -0.0000 1.0000
vn -1.0000 -0.0000 -0.0000
vn -0.0000 1.0000 -0.0000
vn -0.0000 -1.0000 -0.0000
vt 0.500000 0.875000
vt 0.750000 0.875000
vt 0.750000 0.890625
vt 0.500000 0.890625
vt 0.500000 0.859375
vt 0.750000 0.859375
vt 0.500000 0.843750
vt 0.750000 0.843750
vt 0.500000 0.828125
vt 0.750000 0.828125
vt 0.250000 1.000000
vt 0.000000 1.000000
vt 0.000000 0.750000
vt 0.250000 0.750000
vt 0.250000 0.500000
vt 0.000000 0.500000
s 0
usemtl m_d27d1296-70af-84d8-2f26-adcf3f1af141
f 4/1/1 7/2/1 5/3/1 2/4/1
f 3/5/2 4/6/2 2/2/2 1/1/2
f 8/7/3 3/8/3 1/6/3 6/5/3
f 7/9/4 8/10/4 6/8/4 5/7/4
f 6/11/5 1/12/5 2/13/5 5/14/5
f 7/15/6 4/16/6 3/13/6 8/14/6
o cube.001
v -0.437500 0.500000 0.500000
v -0.437500 0.500000 -0.500000
v -0.437500 0.062500 0.500000
v -0.437500 0.062500 -0.500000
v -0.500000 0.500000 -0.500000
v -0.500000 0.500000 0.500000
v -0.500000 0.062500 -0.500000
v -0.500000 0.062500 0.500000
vn -0.0000 -0.0000 -1.0000
vn 1.0000 -0.0000 -0.0000
vn -0.0000 -0.0000 1.0000
vn -1.0000 -0.0000 -0.0000
vn -0.0000 1.0000 -0.0000
vn -0.0000 -1.0000 -0.0000
vt 0.250000 0.343750
vt 0.265625 0.343750
vt 0.265625 0.453125
vt 0.250000 0.453125
vt 0.250000 0.890625
vt 0.500000 0.890625
vt 0.500000 1.000000
vt 0.250000 1.000000
vt 0.281250 0.343750
vt 0.281250 0.453125
vt 0.250000 0.781250
vt 0.500000 0.781250
vt 0.515625 0.828125
vt 0.500000 0.828125
vt 0.500000 0.578125
vt 0.515625 0.578125
vt 0.234375 0.250000
vt 0.218750 0.250000
vt 0.218750 0.500000
vt 0.234375 0.500000
s 0
usemtl m_d27d1296-70af-84d8-2f26-adcf3f1af141
f 12/17/7 15/18/7 13/19/7 10/20/7
f 11/21/8 12/22/8 10/23/8 9/24/8
f 16/18/9 11/25/9 9/26/9 14/19/9
f 15/27/10 16/28/10 14/22/10 13/21/10
f 14/29/11 9/30/11 10/31/11 13/32/11
f 15/33/12 12/34/12 11/35/12 16/36/12
o cube.002
v 0.500000 0.500000 0.500000
v 0.500000 0.500000 -0.500000
v 0.500000 0.062500 0.500000
v 0.500000 0.062500 -0.500000
v 0.437500 0.500000 -0.500000
v 0.437500 0.500000 0.500000
v 0.437500 0.062500 -0.500000
v 0.437500 0.062500 0.500000
vn -0.0000 -0.0000 -1.0000
vn 1.0000 -0.0000 -0.0000
vn -0.0000 -0.0000 1.0000
vn -1.0000 -0.0000 -0.0000
vn -0.0000 1.0000 -0.0000
vn -0.0000 -1.0000 -0.0000
vt 0.281250 0.343750
vt 0.296875 0.343750
vt 0.296875 0.453125
vt 0.281250 0.453125
vt 0.250000 0.671875
vt 0.500000 0.671875
vt 0.500000 0.781250
vt 0.250000 0.781250
vt 0.312500 0.343750
vt 0.312500 0.453125
vt 0.250000 0.562500
vt 0.500000 0.562500
vt 0.250000 0.500000
vt 0.234375 0.500000
vt 0.234375 0.250000
vt 0.250000 0.250000
vt 0.531250 0.578125
vt 0.515625 0.578125
vt 0.515625 0.828125
vt 0.531250 0.828125
s 0
usemtl m_d27d1296-70af-84d8-2f26-adcf3f1af141
f 20/37/13 23/38/13 21/39/13 18/40/13
f 19/41/14 20/42/14 18/43/14 17/44/14
f 24/38/15 19/45/15 17/46/15 22/39/15
f 23/47/16 24/48/16 22/42/16 21/41/16
f 22/49/17 17/50/17 18/51/17 21/52/17
f 23/53/18 20/54/18 19/55/18 24/56/18
o cube.003
v 0.437500 0.500000 0.500000
v 0.437500 0.500000 0.437500
v 0.437500 0.062500 0.500000
v 0.437500 0.062500 0.437500
v -0.437500 0.500000 0.437500
v -0.437500 0.500000 0.500000
v -0.437500 0.062500 0.437500
v -0.437500 0.062500 0.500000
vn -0.0000 -0.0000 -1.0000
vn 1.0000 -0.0000 -0.0000
vn -0.0000 -0.0000 1.0000
vn -1.0000 -0.0000 -0.0000
vn -0.0000 1.0000 -0.0000
vn -0.0000 -1.0000 -0.0000
vt 0.000000 0.390625
vt 0.218750 0.390625
vt 0.218750 0.500000
vt 0.000000 0.500000
vt 0.312500 0.343750
vt 0.328125 0.343750
vt 0.328125 0.453125
vt 0.312500 0.453125
vt 0.500000 0.890625
vt 0.718750 0.890625
vt 0.718750 1.000000
vt 0.500000 1.000000
vt 0.343750 0.343750
vt 0.343750 0.453125
vt 0.750000 0.812500
vt 0.531250 0.812500
vt 0.531250 0.796875
vt 0.750000 0.796875
vt 0.750000 0.781250
vt 0.531250 0.781250
s 0
usemtl m_d27d1296-70af-84d8-2f26-adcf3f1af141
f 28/57/19 31/58/19 29/59/19 26/60/19
f 27/61/20 28/62/20 26/63/20 25/64/20
f 32/65/21 27/66/21 25/67/21 30/68/21
f 31/62/22 32/69/22 30/70/22 29/63/22
f 30/71/23 25/72/23 26/73/23 29/74/23
f 31/75/24 28/76/24 27/73/24 32/74/24
o cube.004
v 0.437500 0.500000 -0.437500
v 0.437500 0.500000 -0.500000
v 0.437500 0.062500 -0.437500
v 0.437500 0.062500 -0.500000
v -0.437500 0.500000 -0.500000
v -0.437500 0.500000 -0.437500
v -0.437500 0.062500 -0.500000
v -0.437500 0.062500 -0.437500
vn -0.0000 -0.0000 -1.0000
vn 1.0000 -0.0000 -0.0000
vn -0.0000 -0.0000 1.0000
vn -1.0000 -0.0000 -0.0000
vn -0.0000 1.0000 -0.0000
vn -0.0000 -1.0000 -0.0000
vt 0.250000 0.453125
vt 0.468750 0.453125
vt 0.468750 0.562500
vt 0.250000 0.562500
vt 0.531250 0.671875
vt 0.546875 0.671875
vt 0.546875 0.781250
vt 0.531250 0.781250
vt 0.687500 0.453125
vt 0.687500 0.562500
vt 0.562500 0.671875
vt 0.562500 0.781250
vt 0.718750 0.578125
vt 0.500000 0.578125
vt 0.500000 0.562500
vt 0.718750 0.562500
vt 0.750000 0.812500
vt 0.531250 0.812500
vt 0.531250 0.828125
vt 0.750000 0.828125
s 0
usemtl m_d27d1296-70af-84d8-2f26-adcf3f1af141
f 36/77/25 39/78/25 37/79/25 34/80/25
f 35/81/26 36/82/26 34/83/26 33/84/26
f 40/78/27 35/85/27 33/86/27 38/79/27
f 39/82/28 40/87/28 38/88/28 37/83/28
f 38/89/29 33/90/29 34/91/29 37/92/29
f 39/93/30 36/94/30 35/95/30 40/96/30
